# xmcd CD database file generated by Grip 3.0.6
# 
# Track frame offsets:
#       150
#       2562
#       24700
#       46960
#       77792
#       105645
#       124725
#       164417
#       190022
#       211437
#       228920
#       250227
#       269142
# 
# Disc length: 3851 seconds
# 
# Revision: 2
# Processed by: cddbd v1.4PL0 Copyright (c) Steve Scherf et al.
# Submitted via: Grip 3.0.6
# 
DISCID=ad0f090d
DTITLE=Grandmaster Flash - adventures on the wheels of steel disc 3
DYEAR=1900
DGENRE=Rap
TTITLE0=trinidad spot (gmm)
TTITLE1=she's fresh (gf and tff)
TTITLE2=it's a shame (mt. airy groove) (gf and tff)
TTITLE3=internationally known (gf and tff)
TTITLE4=hustlers convention (gmm and tff)
TTITLE5=the truth (gmm)
TTITLE6=world war III (gmm and tff)
TTITLE7=the new adventures of grandmaster (gmm and tff)
TTITLE8=freestyle (gmm and tff)
TTITLE9=black man (gmm and tff)
TTITLE10=drug wars (gmm and tff)
TTITLE11=kick the knowledge (gmm and tff)
TTITLE12=d.c. cab (gmm and tff)
EXTD=grandmaster flash.\nthe furious five.\ngrandmaster melle mel.
EXTT0=
EXTT1=
EXTT2=
EXTT3=
EXTT4=
EXTT5=
EXTT6=
EXTT7=
EXTT8=
EXTT9=
EXTT10=
EXTT11=
EXTT12=
PLAYORDER=
